<?xml version="1.0" standalone="no"?>
<!DOCTYPE svg PUBLIC "-//W3C//DTD SVG 20010904//EN"
 "http://www.w3.org/TR/2001/REC-SVG-20010904/DTD/svg10.dtd">
<svg version="1.0" xmlns="http://www.w3.org/2000/svg"
 width="595.000000pt" height="564.000000pt" viewBox="0 0 595.000000 564.000000"
 preserveAspectRatio="xMidYMid meet">

<g transform="translate(0.000000,564.000000) scale(0.100000,-0.100000)"
fill="#000000" stroke="none">
<path d="M3140 4315 c-85 -25 -95 -28 -106 -37 -7 -5 -31 -6 -54 -2 -39 6
-130 -7 -175 -27 -35 -15 -128 -39 -150 -39 -11 0 -38 -9 -58 -19 -21 -10 -53
-19 -73 -19 -25 0 -40 -6 -50 -20 -8 -11 -28 -23 -44 -27 -17 -4 -38 -17 -46
-30 -8 -13 -27 -26 -42 -30 -22 -5 -92 -67 -92 -81 0 -2 13 -1 30 2 18 4 36 1
45 -6 14 -12 70 -9 108 6 8 3 21 -1 28 -9 8 -7 19 -13 24 -11 6 1 22 5 38 8
15 4 27 13 27 21 0 11 10 13 46 10 44 -5 80 8 69 25 -2 4 16 7 42 8 25 0 49 5
52 11 4 5 41 11 84 13 42 1 77 6 77 11 0 6 21 7 50 3 34 -5 50 -3 50 4 0 7 12
11 28 10 43 -3 54 -1 47 10 -3 6 1 10 9 10 9 0 16 6 16 13 0 9 12 11 40 9 25
-3 40 0 40 7 0 6 10 11 23 10 21 0 21 -1 2 -10 -17 -8 -17 -9 5 -4 14 2 29 5
33 5 5 0 8 10 7 23 -3 34 -1 43 8 31 4 -6 17 -14 30 -18 16 -6 22 -3 22 8 0 9
7 16 15 16 18 0 20 -20 3 -20 -15 -1 22 -24 37 -25 6 0 11 -7 11 -15 1 -8 3
-19 4 -25 1 -5 2 -13 1 -17 0 -5 4 -8 9 -8 18 0 11 -19 -20 -50 -16 -17 -30
-35 -30 -40 0 -13 3 -13 36 5 16 8 37 12 47 9 10 -3 19 1 23 10 4 10 19 15 47
14 54 -2 108 7 180 28 46 14 60 15 66 5 6 -8 11 -1 16 21 4 18 9 28 12 21 3
-10 9 -10 24 0 16 10 21 9 29 -3 8 -13 10 -13 10 2 0 11 12 18 40 23 39 7 40
8 40 46 0 32 -3 39 -20 39 -11 0 -20 4 -20 8 0 5 -21 7 -47 6 -48 -3 -183 23
-183 35 0 3 -10 7 -22 7 -13 1 -52 9 -88 18 -84 22 -121 26 -255 30 -69 2
-127 -1 -155 -9z"/>
<path d="M3960 4205 c0 -8 -5 -15 -11 -15 -6 0 -3 -7 5 -16 9 -8 16 -18 16
-22 0 -6 33 -7 72 -3 4 1 5 7 2 14 -3 9 -16 12 -34 9 -25 -4 -30 -1 -30 16 0
11 6 23 13 25 6 3 2 6 -10 6 -14 1 -23 -5 -23 -14z"/>
<path d="M3303 4143 c9 -2 23 -2 30 0 6 3 -1 5 -18 5 -16 0 -22 -2 -12 -5z"/>
</g>
</svg>
